# Wavefront OBJ file automatically generated by Tiled2Unity

# Vertices (Count = 121)
v -32 -64 0
v -64 -64 0
v -64 -32 0
v -32 -32 0
v -96 -64 0
v -96 -32 0
v -128 -64 0
v -128 -32 0
v -160 -64 0
v -160 -32 0
v -192 -64 0
v -192 -32 0
v -224 -64 0
v -224 -32 0
v -256 -64 0
v -256 -32 0
v -288 -64 0
v -288 -32 0
v -32 -96 0
v -64 -96 0
v -96 -96 0
v -128 -96 0
v -160 -96 0
v -192 -96 0
v -224 -96 0
v -256 -96 0
v -288 -96 0
v -32 -128 0
v -64 -128 0
v -96 -128 0
v -128 -128 0
v -160 -128 0
v -192 -128 0
v -224 -128 0
v -256 -128 0
v -288 -128 0
v -32 -160 0
v -64 -160 0
v -96 -160 0
v -128 -160 0
v -160 -160 0
v -192 -160 0
v -224 -160 0
v -256 -160 0
v -288 -160 0
v -32 -192 0
v -64 -192 0
v -96 -192 0
v -128 -192 0
v -160 -192 0
v -192 -192 0
v -224 -192 0
v -256 -192 0
v -288 -192 0
v -32 -224 0
v -64 -224 0
v -96 -224 0
v -128 -224 0
v -160 -224 0
v -192 -224 0
v -224 -224 0
v -256 -224 0
v -288 -224 0
v -32 -256 0
v -64 -256 0
v -96 -256 0
v -128 -256 0
v -160 -256 0
v -192 -256 0
v -224 -256 0
v -256 -256 0
v -288 -256 0
v -32 -288 0
v -64 -288 0
v -96 -288 0
v -128 -288 0
v -160 -288 0
v -192 -288 0
v -224 -288 0
v -256 -288 0
v -288 -288 0
v 0 -32 0
v -32 0 0
v 0 0 0
v -64 0 0
v -96 0 0
v -128 0 0
v -160 0 0
v -192 0 0
v -224 0 0
v -256 0 0
v -288 0 0
v -320 -32 0
v -320 0 0
v 0 -64 0
v -320 -64 0
v 0 -96 0
v -320 -96 0
v 0 -128 0
v -320 -128 0
v 0 -160 0
v -320 -160 0
v 0 -192 0
v -320 -192 0
v 0 -224 0
v -320 -224 0
v 0 -256 0
v -320 -256 0
v 0 -288 0
v -320 -288 0
v 0 -320 0
v -32 -320 0
v -64 -320 0
v -96 -320 0
v -128 -320 0
v -160 -320 0
v -192 -320 0
v -224 -320 0
v -256 -320 0
v -288 -320 0
v -320 -320 0

# Texture Coorindates (Count = 12)
vt 0.8572649 0.1429792
vt 0.9284493 0.1429792
vt 0.9284493 0.2141636
vt 0.8572649 0.2141636
vt 0.07155064 0.7144078
vt 0.1427351 0.7144078
vt 0.1427351 0.7855922
vt 0.07155064 0.7855922
vt 0.4286935 0.8572649
vt 0.4998779 0.8572649
vt 0.4998779 0.9284493
vt 0.4286935 0.9284493

# Normal
vn 0 0 -1

# Groups (Count = 3)
g mesh_[00]_[00]
f  1/1/1  2/2/1  3/3/1  4/4/1 
f  2/1/1  5/2/1  6/3/1  3/4/1 
f  5/1/1  7/2/1  8/3/1  6/4/1 
f  7/1/1  9/2/1  10/3/1  8/4/1 
f  9/1/1  11/2/1  12/3/1  10/4/1 
f  11/1/1  13/2/1  14/3/1  12/4/1 
f  13/1/1  15/2/1  16/3/1  14/4/1 
f  15/1/1  17/2/1  18/3/1  16/4/1 
f  19/1/1  20/2/1  2/3/1  1/4/1 
f  20/1/1  21/2/1  5/3/1  2/4/1 
f  21/1/1  22/2/1  7/3/1  5/4/1 
f  22/1/1  23/2/1  9/3/1  7/4/1 
f  23/1/1  24/2/1  11/3/1  9/4/1 
f  24/1/1  25/2/1  13/3/1  11/4/1 
f  25/1/1  26/2/1  15/3/1  13/4/1 
f  26/1/1  27/2/1  17/3/1  15/4/1 
f  28/1/1  29/2/1  20/3/1  19/4/1 
f  29/1/1  30/2/1  21/3/1  20/4/1 
f  30/1/1  31/2/1  22/3/1  21/4/1 
f  31/1/1  32/2/1  23/3/1  22/4/1 
f  32/1/1  33/2/1  24/3/1  23/4/1 
f  33/1/1  34/2/1  25/3/1  24/4/1 
f  34/1/1  35/2/1  26/3/1  25/4/1 
f  35/1/1  36/2/1  27/3/1  26/4/1 
f  37/1/1  38/2/1  29/3/1  28/4/1 
f  38/1/1  39/2/1  30/3/1  29/4/1 
f  39/1/1  40/2/1  31/3/1  30/4/1 
f  40/1/1  41/2/1  32/3/1  31/4/1 
f  41/1/1  42/2/1  33/3/1  32/4/1 
f  42/1/1  43/2/1  34/3/1  33/4/1 
f  43/1/1  44/2/1  35/3/1  34/4/1 
f  44/1/1  45/2/1  36/3/1  35/4/1 
f  46/1/1  47/2/1  38/3/1  37/4/1 
f  47/1/1  48/2/1  39/3/1  38/4/1 
f  48/1/1  49/2/1  40/3/1  39/4/1 
f  49/1/1  50/2/1  41/3/1  40/4/1 
f  50/1/1  51/2/1  42/3/1  41/4/1 
f  51/1/1  52/2/1  43/3/1  42/4/1 
f  52/1/1  53/2/1  44/3/1  43/4/1 
f  53/1/1  54/2/1  45/3/1  44/4/1 
f  55/1/1  56/2/1  47/3/1  46/4/1 
f  56/1/1  57/2/1  48/3/1  47/4/1 
f  57/1/1  58/2/1  49/3/1  48/4/1 
f  58/1/1  59/2/1  50/3/1  49/4/1 
f  59/1/1  60/2/1  51/3/1  50/4/1 
f  60/1/1  61/2/1  52/3/1  51/4/1 
f  61/1/1  62/2/1  53/3/1  52/4/1 
f  62/1/1  63/2/1  54/3/1  53/4/1 
f  64/1/1  65/2/1  56/3/1  55/4/1 
f  65/1/1  66/2/1  57/3/1  56/4/1 
f  66/1/1  67/2/1  58/3/1  57/4/1 
f  67/1/1  68/2/1  59/3/1  58/4/1 
f  68/1/1  69/2/1  60/3/1  59/4/1 
f  69/1/1  70/2/1  61/3/1  60/4/1 
f  70/1/1  71/2/1  62/3/1  61/4/1 
f  71/1/1  72/2/1  63/3/1  62/4/1 
f  73/1/1  74/2/1  65/3/1  64/4/1 
f  74/1/1  75/2/1  66/3/1  65/4/1 
f  75/1/1  76/2/1  67/3/1  66/4/1 
f  76/1/1  77/2/1  68/3/1  67/4/1 
f  77/1/1  78/2/1  69/3/1  68/4/1 
f  78/1/1  79/2/1  70/3/1  69/4/1 
f  79/1/1  80/2/1  71/3/1  70/4/1 
f  80/1/1  81/2/1  72/3/1  71/4/1 
g mesh_[01]_[00]
f  33/5/1  34/6/1  25/7/1  24/8/1 
f  39/5/1  40/6/1  31/7/1  30/8/1 
f  66/5/1  67/6/1  58/7/1  57/8/1 
f  69/5/1  70/6/1  61/7/1  60/8/1 
g mesh_[02]_[00]
f  82/9/1  4/10/1  83/11/1  84/12/1 
f  4/9/1  3/10/1  85/11/1  83/12/1 
f  3/9/1  6/10/1  86/11/1  85/12/1 
f  6/9/1  8/10/1  87/11/1  86/12/1 
f  8/9/1  10/10/1  88/11/1  87/12/1 
f  10/9/1  12/10/1  89/11/1  88/12/1 
f  12/9/1  14/10/1  90/11/1  89/12/1 
f  14/9/1  16/10/1  91/11/1  90/12/1 
f  16/9/1  18/10/1  92/11/1  91/12/1 
f  18/9/1  93/10/1  94/11/1  92/12/1 
f  95/9/1  1/10/1  4/11/1  82/12/1 
f  1/9/1  2/10/1  3/11/1  4/12/1 
f  2/9/1  5/10/1  6/11/1  3/12/1 
f  13/9/1  15/10/1  16/11/1  14/12/1 
f  15/9/1  17/10/1  18/11/1  16/12/1 
f  17/9/1  96/10/1  93/11/1  18/12/1 
f  97/9/1  19/10/1  1/11/1  95/12/1 
f  19/9/1  20/10/1  2/11/1  1/12/1 
f  26/9/1  27/10/1  17/11/1  15/12/1 
f  27/9/1  98/10/1  96/11/1  17/12/1 
f  99/9/1  28/10/1  19/11/1  97/12/1 
f  36/9/1  100/10/1  98/11/1  27/12/1 
f  101/9/1  37/10/1  28/11/1  99/12/1 
f  40/9/1  41/10/1  32/11/1  31/12/1 
f  41/9/1  42/10/1  33/11/1  32/12/1 
f  45/9/1  102/10/1  100/11/1  36/12/1 
f  103/9/1  46/10/1  37/11/1  101/12/1 
f  49/9/1  50/10/1  41/11/1  40/12/1 
f  50/9/1  51/10/1  42/11/1  41/12/1 
f  54/9/1  104/10/1  102/11/1  45/12/1 
f  105/9/1  55/10/1  46/11/1  103/12/1 
f  63/9/1  106/10/1  104/11/1  54/12/1 
f  107/9/1  64/10/1  55/11/1  105/12/1 
f  64/9/1  65/10/1  56/11/1  55/12/1 
f  71/9/1  72/10/1  63/11/1  62/12/1 
f  72/9/1  108/10/1  106/11/1  63/12/1 
f  109/9/1  73/10/1  64/11/1  107/12/1 
f  73/9/1  74/10/1  65/11/1  64/12/1 
f  74/9/1  75/10/1  66/11/1  65/12/1 
f  79/9/1  80/10/1  71/11/1  70/12/1 
f  80/9/1  81/10/1  72/11/1  71/12/1 
f  81/9/1  110/10/1  108/11/1  72/12/1 
f  111/9/1  112/10/1  73/11/1  109/12/1 
f  112/9/1  113/10/1  74/11/1  73/12/1 
f  113/9/1  114/10/1  75/11/1  74/12/1 
f  114/9/1  115/10/1  76/11/1  75/12/1 
f  115/9/1  116/10/1  77/11/1  76/12/1 
f  116/9/1  117/10/1  78/11/1  77/12/1 
f  117/9/1  118/10/1  79/11/1  78/12/1 
f  118/9/1  119/10/1  80/11/1  79/12/1 
f  119/9/1  120/10/1  81/11/1  80/12/1 
f  120/9/1  121/10/1  110/11/1  81/12/1 
